HIERARCHY
ROOT hip
{
  OFFSET 0 0 0
  CHANNELS 6 Xposition Yposition Zposition Zrotation Yrotation Xrotation
  JOINT abdomen
  {
    OFFSET 0 20.6881 -0.73152
    CHANNELS 3 Zrotation Xrotation Yrotation
    JOINT chest
    {
      OFFSET 0 11.7043 -0.48768
      CHANNELS 3 Zrotation Xrotation Yrotation
      JOINT neck
      {
        OFFSET 0 22.1894 -2.19456
        CHANNELS 3 Zrotation Xrotation Yrotation
        JOINT head
        {
          OFFSET -0.24384 7.07133 1.2192
          CHANNELS 3 Zrotation Xrotation Yrotation
          JOINT leftEye
          {
            OFFSET 4.14528 8.04674 8.04672
            CHANNELS 3 Zrotation Xrotation Yrotation
            End Site
            {
              OFFSET 1 0 0
            }
          }
          JOINT rightEye
          {
            OFFSET -3.6576 8.04674 8.04672
            CHANNELS 3 Zrotation Xrotation Yrotation
            End Site
            {
              OFFSET 1 0 0
            }
          }
        }
      }
      JOINT rCollar
      {
        OFFSET -2.68224 19.2634 -4.8768
        CHANNELS 3 Zrotation Xrotation Yrotation
        JOINT rShldr
        {
          OFFSET -8.77824 -1.95073 1.46304
          CHANNELS 3 Zrotation Xrotation Yrotation
          JOINT rForeArm
          {
            OFFSET -28.1742 -1.7115 0.48768
            CHANNELS 3 Zrotation Xrotation Yrotation
            JOINT rHand
            {
              OFFSET -22.5879 0.773209 7.07136
              CHANNELS 3 Zrotation Xrotation Yrotation
              JOINT rThumb1
              {
                OFFSET -1.2192 -0.487915 3.41376
                CHANNELS 3 Zrotation Xrotation Yrotation
                JOINT rThumb2
                {
                  OFFSET -3.37035 -0.52449 3.41376
                  CHANNELS 3 Zrotation Xrotation Yrotation
                  End Site
                  {
                    OFFSET -1.78271 -1.18214 1.43049
                  }
                }
              }
              JOINT rIndex1
              {
                OFFSET -7.75947 0.938293 5.60832
                CHANNELS 3 Zrotation Xrotation Yrotation
                JOINT rIndex2
                {
                  OFFSET -2.54057 -0.884171 1.56538
                  CHANNELS 3 Zrotation Xrotation Yrotation
                  End Site
                  {
                    OFFSET -1.62519 -0.234802 1.16502
                  }
                }
              }
              JOINT rMid1
              {
                OFFSET -8.24714 1.18213 3.41376
                CHANNELS 3 Zrotation Xrotation Yrotation
                JOINT rMid2
                {
                  OFFSET -3.10165 -0.590103 1.0647
                  CHANNELS 3 Zrotation Xrotation Yrotation
                  End Site
                  {
                    OFFSET -2.48547 -0.328903 0.83742
                  }
                }
              }
              JOINT rRing1
              {
                OFFSET -8.82822 0.546677 1.51678
                CHANNELS 3 Zrotation Xrotation Yrotation
                JOINT rRing2
                {
                  OFFSET -2.60934 -0.819778 -0.0198488
                  CHANNELS 3 Zrotation Xrotation Yrotation
                  End Site
                  {
                    OFFSET -2.33842 -0.294052 0.168128
                  }
                }
              }
              JOINT rPinky1
              {
                OFFSET -8.27202 -0.0477905 -0.4584
                CHANNELS 3 Zrotation Xrotation Yrotation
                JOINT rPinky2
                {
                  OFFSET -1.82734 -0.647385 -0.700984
                  CHANNELS 3 Zrotation Xrotation Yrotation
                  End Site
                  {
                    OFFSET -1.69225 -0.51767 -0.607171
                  }
                }
              }
            }
          }
        }
      }
      JOINT lCollar
      {
        OFFSET 2.68224 19.2634 -4.8768
        CHANNELS 3 Zrotation Xrotation Yrotation
        JOINT lShldr
        {
          OFFSET 8.77824 -1.95073 1.46304
          CHANNELS 3 Zrotation Xrotation Yrotation
          JOINT lForeArm
          {
            OFFSET 28.1742 -1.7115 0.48768
            CHANNELS 3 Zrotation Xrotation Yrotation
            JOINT lHand
            {
              OFFSET 22.5879 0.773209 7.07136
              CHANNELS 3 Zrotation Xrotation Yrotation
              JOINT lThumb1
              {
                OFFSET 1.2192 -0.487915 3.41376
                CHANNELS 3 Zrotation Xrotation Yrotation
                JOINT lThumb2
                {
                  OFFSET 3.37035 -0.52449 3.41376
                  CHANNELS 3 Zrotation Xrotation Yrotation
                  End Site
                  {
                    OFFSET 1.78271 -1.18214 1.43049
                  }
                }
              }
              JOINT lIndex1
              {
                OFFSET 7.75947 0.938293 5.60832
                CHANNELS 3 Zrotation Xrotation Yrotation
                JOINT lIndex2
                {
                  OFFSET 2.54057 -0.884171 1.56538
                  CHANNELS 3 Zrotation Xrotation Yrotation
                  End Site
                  {
                    OFFSET 1.62519 -0.234802 1.16502
                  }
                }
              }
              JOINT lMid1
              {
                OFFSET 8.24714 1.18213 3.41376
                CHANNELS 3 Zrotation Xrotation Yrotation
                JOINT lMid2
                {
                  OFFSET 3.10165 -0.590103 1.0647
                  CHANNELS 3 Zrotation Xrotation Yrotation
                  End Site
                  {
                    OFFSET 2.48547 -0.328903 0.83742
                  }
                }
              }
              JOINT lRing1
              {
                OFFSET 8.82822 0.546677 1.51678
                CHANNELS 3 Zrotation Xrotation Yrotation
                JOINT lRing2
                {
                  OFFSET 2.60934 -0.819778 -0.0198488
                  CHANNELS 3 Zrotation Xrotation Yrotation
                  End Site
                  {
                    OFFSET 2.33842 -0.294052 0.168128
                  }
                }
              }
              JOINT lPinky1
              {
                OFFSET 8.27202 -0.0477905 -0.4584
                CHANNELS 3 Zrotation Xrotation Yrotation
                JOINT lPinky2
                {
                  OFFSET 1.82734 -0.647385 -0.700984
                  CHANNELS 3 Zrotation Xrotation Yrotation
                  End Site
                  {
                    OFFSET 1.69225 -0.51767 -0.607171
                  }
                }
              }
            }
          }
        }
      }
    }
  }
  JOINT rButtock
  {
    OFFSET -8.77824 4.35084 1.2192
    CHANNELS 3 Zrotation Xrotation Yrotation
    JOINT rThigh
    {
      OFFSET 0 -1.70687 -2.19456
      CHANNELS 3 Zrotation Xrotation Yrotation
      JOINT rShin
      {
        OFFSET 0 -36.8199 0.73152
        CHANNELS 3 Zrotation Xrotation Yrotation
        JOINT rFoot
        {
          OFFSET 0.73152 -45.1104 -5.12064
          CHANNELS 3 Zrotation Xrotation Yrotation
          End Site
          {
            OFFSET -1.1221 -3.69964 12.103
          }
        }
      }
    }
  }
  JOINT lButtock
  {
    OFFSET 8.77824 4.35084 1.2192
    CHANNELS 3 Zrotation Xrotation Yrotation
    JOINT lThigh
    {
      OFFSET 0 -1.70687 -2.19456
      CHANNELS 3 Zrotation Xrotation Yrotation
      JOINT lShin
      {
        OFFSET 0 -36.8199 0.73152
        CHANNELS 3 Zrotation Xrotation Yrotation
        JOINT lFoot
        {
          OFFSET -0.73152 -45.1104 -5.12064
          CHANNELS 3 Zrotation Xrotation Yrotation
          End Site
          {
            OFFSET 1.1221 -3.69964 12.103
          }
        }
      }
    }
  }
}
MOTION
Frames:	4
Frame Time:	0.03333
-9.678398437798023 -0.1696729063987732 -21.930120733566582 -102.22849130630493 -101.97213649749756 139.49815034866333 -1.1871249228715897 12.866879850625992 9.288671538233757 -1.1254817247390747 -12.748984694480896 1.3345059379935265 -3.6639752984046936 15.437767803668976 -0.3596141980960965 0.7124718278646469 -24.099452197551727 11.19298629462719 4.114565625786781 0.0023536384105682373 -0.3443775326013565 -3.265867754817009 1.8064422905445099 -7.580486610531807 5.934809222817421 -0.9634065628051758 -3.8835181295871735 34.09647434949875 41.20002061128616 23.295060396194458 -26.710317134857178 -37.24658668041229 79.79769229888916 -15.325954556465149 -42.628211081027985 -25.04607617855072 -0.2482138853520155 -5.004011616110802 -2.416503354907036 -0.18209483474493027 -0.715095279738307 -1.1866367608308792 -1.1298731714487076 2.1096772514283657 -2.603301778435707 6.157029569149017 10.04646398127079 2.041202634572983 2.3550304770469666 -4.8176805675029755 1.4892419055104256 3.090320862829685 0.5185990780591965 -2.367485985159874 -1.0765736550092697 -0.42712703347206116 -1.645282432436943 15.84598258137703 -1.8306344747543335 -1.2109000235795975 0.3403528779745102 -0.47558482736349106 2.6913154497742653 0.4346378892660141 0.08672486990690231 3.833983764052391 3.606710471212864 -3.2796140760183334 -1.488264575600624 -44.33571606874466 21.46471157670021 -45.60450553894043 23.217600882053375 -32.84536600112915 -72.65080690383911 12.08982914686203 -5.149848014116287 10.152322053909302 2.6321549713611603 5.659581050276756 -0.5290876049548388 -0.988973043859005 3.3683717250823975 0.8980411291122437 1.1301742494106293 0.01448124647140503 0.6246717274188995 -8.641209080815315 8.406178504228592 -0.28649806044995785 -1.3031599670648575 -0.694507397711277 -1.4188818633556366 0.3755270317196846 -3.6499594151973724 3.0388442426919937 -3.4547945111989975 -1.3089806959033012 -2.4543634057044983 -7.189277037978172 -3.034118190407753 0.1577591523528099 -0.9609607234597206 0.3500511171296239 -0.5471327528357506 -3.215940110385418 0.02911437302827835 -1.320689208805561 2.686634659767151 0.6821195315569639 3.356592133641243 -15.983809232711792 -36.02235674858093 -25.382816791534424 -3.366570621728897 65.77074229717255 6.943590044975281 -3.245287835597992 -8.770746365189552 -17.6270592212677 2.4898195266723633 1.3180207461118698 1.4966347441077232 35.4901447892189 -44.03861850500107 39.70382273197174 1.49242602288723 70.32298743724823 -2.65844464302063 10.496448129415512 -7.226386070251465 9.378588572144508
-9.89325312525034 -0.036695946007966995 -21.769652453251183 -91.37747526168823 -92.71016836166382 128.47639560699463 -0.20268313586711884 12.371050715446472 9.060148000717163 -0.46296603977680206 -11.447519212961197 1.788791511207819 -3.6874908953905106 15.13441801071167 -0.837791757658124 1.204114705324173 -23.475725948810577 9.858764335513115 4.412952661514282 -0.9134819358587265 -0.5017963796854019 -3.605985604226589 1.4127838611602783 -6.670965626835823 5.844338312745094 -1.3605143129825592 -4.048974886536598 33.06177198886871 41.27506077289581 23.55093240737915 -26.008222103118896 -36.548359394073486 79.22376930713654 -13.934373557567596 -40.95765620470047 -23.720284402370453 -0.3198924008756876 -5.0106219202280045 -1.461789831519127 0.42912159115076065 -0.9894758742302656 -1.047521810978651 -0.9966320917010307 2.226442191749811 -3.1158605217933655 5.538531616330147 10.487610921263695 1.721162125468254 2.684197872877121 -4.6274153888225555 2.0430728048086166 3.5790394619107246 0.9325014799833298 -2.6771463453769684 -0.5149982124567032 -0.45200519263744354 -1.2283779680728912 14.907429367303848 -0.5959624517709017 -1.512831263244152 0.7446355372667313 0.47917161136865616 2.1850280463695526 0.8403635770082474 0.6101354956626892 4.367560967803001 3.6905985698103905 -2.778490260243416 -1.559557020664215 -43.962770998477936 20.277308374643326 -45.018818378448486 22.45896354317665 -31.30403459072113 -71.29355013370514 11.664835810661316 -4.838322848081589 10.470819622278214 2.382146269083023 5.023373141884804 -1.0486734006553888 -1.8623492494225502 2.4586522579193115 0.3672044724225998 1.1228451132774353 0.15930511057376862 0.394696444272995 -9.22428846359253 7.72544726729393 0.035176919773221016 -1.5814820677042007 -0.8928648009896278 -1.810934655368328 -0.7513789460062981 -3.368161842226982 2.9613324254751205 -3.515079841017723 -1.5657297894358635 -1.7850235104560852 -7.825761213898659 -2.495444118976593 0.11856671422719955 -0.40110625326633453 0.7855705730617046 -0.0749717652797699 -2.2232260555028915 -0.5573727563023567 -1.6026802361011505 2.9920852929353714 1.181181063875556 3.7293467670679092 -16.56628042459488 -35.23195803165436 -25.610367357730865 -3.0852142721414566 65.24979829788208 6.259999573230743 -2.8251100704073906 -9.025966599583626 -17.98478677868843 1.3057013601064682 1.5172646194696426 1.2233129516243935 36.40550225973129 -43.249212205410004 40.61375945806503 3.0539242923259735 69.06357228755951 -3.2913561165332794 10.176825374364853 -7.674250602722168 8.23432870209217
-10.087363503873348 0.05888337269425392 -21.587888282723725 -88.2699054479599 -90.4564368724823 128.91839146614075 -0.41713647544384 12.189002484083176 9.2740548402071 1.0361795872449875 -10.948352068662643 2.178768776357174 -3.2012412697076797 16.524484902620316 -1.017697909846902 0.3368532657623291 -23.80483567714691 8.282381817698479 4.224805422127247 -1.547413319349289 -0.7271443493664265 -3.00053458660841 1.3261190056800842 -5.788139328360558 6.916202679276466 -2.5647899508476257 -4.547425210475922 34.0327450633049 42.32034981250763 27.327681183815002 -27.268983721733093 -37.32896268367767 82.10481584072113 -13.343850374221802 -41.15318924188614 -22.952783703804016 0.7948388624936342 -4.2992933839559555 -1.565694585442543 -0.7767492905259132 -1.793871447443962 -1.2904268503189087 -0.8423792570829391 1.988662350922823 -3.0296355485916138 6.711102873086929 10.699475929141045 2.9421868175268173 2.0878328382968903 -4.636319652199745 1.7398953437805176 2.338832952082157 1.3498679548501968 -3.7949757277965546 0.870647057890892 -0.47096773982048035 -0.2645348757505417 14.64491754770279 -0.19653056748211384 -1.7624413222074509 2.6015818119049072 0.8063997700810432 2.3855432868003845 0.6528044119477272 0.6813608855009079 4.734708443284035 3.4017662331461906 -2.133055552840233 -0.6791490688920021 -50.050304532051086 23.33025097846985 -44.34414356946945 24.371396005153656 -32.83191204071045 -75.03968417644501 13.69394838809967 -5.456952564418316 11.27616360783577 0.6136827170848846 4.595072641968727 -1.1135583836585283 -2.0763982459902763 1.9932333379983902 -0.8006507903337479 1.8929851055145264 0.2582256495952606 0.9058141708374023 -10.303237214684486 7.166502401232719 1.9109183549880981 -3.1283867731690407 -1.6136974096298218 -1.529289297759533 -1.5742344036698341 -4.081314951181412 4.271842315793037 -3.0039527267217636 -0.5513283982872963 0.21662517450749874 -9.011482000350952 -1.7139818519353867 0.13418622314929962 -0.6136612594127655 0.817385595291853 1.0206948593258858 0.08598759770393372 -1.3378003612160683 -2.1363776363432407 3.4601646289229393 1.6935675591230392 3.8036419451236725 -17.76016652584076 -37.649770975112915 -27.455534040927887 -5.127833113074303 68.87854278087616 5.180456042289734 -3.0342362076044083 -9.872204214334488 -18.42289611697197 0.4440417140722275 1.4807838946580887 0.6339504942297935 37.737876176834106 -44.34634029865265 42.67194986343384 3.4934478253126144 73.0894660949707 -3.96319717168808 9.9081552028656 -9.338432550430298 7.9892150312662125
-10.204566583037376 0.1574263721704483 -21.514251661486924 -84.75403904914856 -82.01227962970734 122.21907019615173 -0.7160405069589615 10.934230238199234 9.645866677165031 0.7745689898729324 -10.547677651047707 2.553580831736326 -4.458185434341431 16.867924332618713 -2.6438698545098305 1.0117372870445251 -22.491768300533295 6.22006818652153 3.7526752799749374 -1.423972025513649 0.3482399135828018 -1.5525762364268303 2.095167338848114 -4.447980299592018 6.721549406647682 -3.5457368195056915 -5.26379831135273 32.48210906982422 39.53833043575287 28.481621146202087 -26.5734601020813 -35.40424972772598 79.32676076889038 -11.484927982091904 -37.52782166004181 -21.11395373940468 1.2137187737971544 -4.0361324697732925 -1.1836762726306915 -0.6008949503302574 -2.000035084784031 -0.20444199442863464 -0.2276129275560379 1.6228963807225227 -1.88534215092659 7.40875817835331 9.595329836010933 2.833661288022995 2.0298904180526733 -5.352797359228134 1.746242456138134 1.6903365030884743 1.9403904676437378 -4.777568466961384 0.7611733675003052 -0.6162093579769135 -0.37319116294384 14.255141615867615 0.4390768613666296 -1.3421673327684402 3.2665490359067917 0.4739614203572273 3.002319261431694 0.5388648435473442 1.0198402404785156 5.4110609740018845 3.084569536149502 -1.6736823320388794 0.7810787111520767 -54.003446102142334 24.03331160545349 -38.325561583042145 24.074236750602722 -32.35747218132019 -74.57668125629425 14.934370815753937 -7.867494374513626 12.180816382169724 -0.9887943416833878 4.988032355904579 0.10383493266999722 -2.32284564524889 1.7317407578229904 -2.421400398015976 2.416631430387497 0.6559120863676071 0.7520783320069313 -10.49668550491333 6.34835422039032 2.567489594221115 -4.624535366892815 -1.4395543187856674 -1.6864989325404167 -2.150171734392643 -4.42462831735611 4.490546956658363 -2.1256352216005325 0.9413309767842293 1.258499762043357 -9.043956845998764 -1.1441780626773834 -0.32629039138555527 -1.0625369846820831 1.3448272459208965 2.3455562442541122 1.5187861025333405 -0.8969243243336678 -1.9592691957950592 3.387034870684147 1.1702750343829393 3.8606972247362137 -18.092763125896454 -39.3371057510376 -27.490477859973907 -5.3205035626888275 69.02503430843353 4.105210080742836 -3.189363107085228 -9.79953981935978 -17.371203303337097 -0.23943006992340088 0.4803702235221863 -0.018268190324306488 34.47395235300064 -42.912326753139496 40.23409277200699 1.2379192560911179 72.23356783390045 -2.178761065006256 9.712986946105957 -11.020919233560562 9.04888205230236
